<mxfile host="app.diagrams.net" modified="2023-12-16T00:48:56.023Z" agent="Mozilla/5.0 (Windows NT 10.0; Win64; x64) AppleWebKit/537.36 (KHTML, like Gecko) Chrome/120.0.0.0 Safari/537.36" etag="QMZ-oaaEcmujVozApRs-" version="22.1.11" type="device" pages="2">
  <diagram name="Страница — 1" id="pTqwipjETX9LGrxRNG2m">
    <mxGraphModel dx="2049" dy="1114" grid="1" gridSize="10" guides="1" tooltips="1" connect="1" arrows="1" fold="1" page="1" pageScale="1" pageWidth="827" pageHeight="1169" math="0" shadow="0">
      <root>
        <mxCell id="0" />
        <mxCell id="1" parent="0" />
        <mxCell id="NOyKjD4s2Vu3y9g4RQLw-1" value="Пользователь" style="shape=umlActor;verticalLabelPosition=bottom;verticalAlign=top;html=1;outlineConnect=0;" parent="1" vertex="1">
          <mxGeometry x="50" y="510" width="30" height="60" as="geometry" />
        </mxCell>
        <mxCell id="NOyKjD4s2Vu3y9g4RQLw-8" value="" style="swimlane;startSize=0;" parent="1" vertex="1">
          <mxGeometry x="280" y="100" width="690" height="740" as="geometry" />
        </mxCell>
        <mxCell id="NOyKjD4s2Vu3y9g4RQLw-15" value="Добавление абонентов" style="ellipse;whiteSpace=wrap;html=1;" parent="NOyKjD4s2Vu3y9g4RQLw-8" vertex="1">
          <mxGeometry x="55" y="60" width="90" height="60" as="geometry" />
        </mxCell>
        <mxCell id="NOyKjD4s2Vu3y9g4RQLw-14" value="Удаление абонентов" style="ellipse;whiteSpace=wrap;html=1;" parent="NOyKjD4s2Vu3y9g4RQLw-8" vertex="1">
          <mxGeometry x="57.5" y="150" width="90" height="60" as="geometry" />
        </mxCell>
        <mxCell id="NOyKjD4s2Vu3y9g4RQLw-13" value="Редактирование абонентов" style="ellipse;whiteSpace=wrap;html=1;" parent="NOyKjD4s2Vu3y9g4RQLw-8" vertex="1">
          <mxGeometry x="57.5" y="250" width="90" height="60" as="geometry" />
        </mxCell>
        <mxCell id="NOyKjD4s2Vu3y9g4RQLw-12" value="Просмотр абонентов" style="ellipse;whiteSpace=wrap;html=1;" parent="NOyKjD4s2Vu3y9g4RQLw-8" vertex="1">
          <mxGeometry x="55" y="340" width="90" height="60" as="geometry" />
        </mxCell>
        <mxCell id="NOyKjD4s2Vu3y9g4RQLw-10" value="Просмотр записей оплаты" style="ellipse;whiteSpace=wrap;html=1;" parent="NOyKjD4s2Vu3y9g4RQLw-8" vertex="1">
          <mxGeometry x="55" y="555" width="90" height="60" as="geometry" />
        </mxCell>
        <mxCell id="GLcFqP7G3xesXfnYZEU_-3" value="Просмотр всех платежей" style="ellipse;whiteSpace=wrap;html=1;" parent="NOyKjD4s2Vu3y9g4RQLw-8" vertex="1">
          <mxGeometry x="210" y="625" width="90" height="60" as="geometry" />
        </mxCell>
        <mxCell id="GLcFqP7G3xesXfnYZEU_-1" value="Просмотр записей оплаты наличными" style="ellipse;whiteSpace=wrap;html=1;" parent="NOyKjD4s2Vu3y9g4RQLw-8" vertex="1">
          <mxGeometry x="210" y="555" width="90" height="60" as="geometry" />
        </mxCell>
        <mxCell id="GLcFqP7G3xesXfnYZEU_-2" value="Просмотр записей оплаты наличными" style="ellipse;whiteSpace=wrap;html=1;" parent="NOyKjD4s2Vu3y9g4RQLw-8" vertex="1">
          <mxGeometry x="210" y="485" width="90" height="60" as="geometry" />
        </mxCell>
        <mxCell id="GLcFqP7G3xesXfnYZEU_-4" value="&quot;ext&quot;" style="endArrow=open;endFill=1;endSize=12;html=1;rounded=0;entryX=1;entryY=0.5;entryDx=0;entryDy=0;exitX=0;exitY=0.5;exitDx=0;exitDy=0;dashed=1;" parent="NOyKjD4s2Vu3y9g4RQLw-8" source="GLcFqP7G3xesXfnYZEU_-2" target="NOyKjD4s2Vu3y9g4RQLw-10" edge="1">
          <mxGeometry width="160" relative="1" as="geometry">
            <mxPoint x="100" y="735" as="sourcePoint" />
            <mxPoint x="260" y="735" as="targetPoint" />
          </mxGeometry>
        </mxCell>
        <mxCell id="GLcFqP7G3xesXfnYZEU_-6" value="&quot;ext&quot;" style="endArrow=open;endFill=1;endSize=12;html=1;rounded=0;entryX=1;entryY=0.5;entryDx=0;entryDy=0;exitX=0;exitY=0.5;exitDx=0;exitDy=0;dashed=1;" parent="NOyKjD4s2Vu3y9g4RQLw-8" source="GLcFqP7G3xesXfnYZEU_-3" target="NOyKjD4s2Vu3y9g4RQLw-10" edge="1">
          <mxGeometry width="160" relative="1" as="geometry">
            <mxPoint x="240" y="405" as="sourcePoint" />
            <mxPoint x="165" y="455" as="targetPoint" />
          </mxGeometry>
        </mxCell>
        <mxCell id="GLcFqP7G3xesXfnYZEU_-5" value="&quot;ext&quot;" style="endArrow=open;endFill=1;endSize=12;html=1;rounded=0;exitX=0;exitY=0.5;exitDx=0;exitDy=0;entryX=1;entryY=0.5;entryDx=0;entryDy=0;dashed=1;" parent="NOyKjD4s2Vu3y9g4RQLw-8" source="GLcFqP7G3xesXfnYZEU_-1" target="NOyKjD4s2Vu3y9g4RQLw-10" edge="1">
          <mxGeometry width="160" relative="1" as="geometry">
            <mxPoint x="230" y="395" as="sourcePoint" />
            <mxPoint x="150" y="435" as="targetPoint" />
          </mxGeometry>
        </mxCell>
        <mxCell id="GLcFqP7G3xesXfnYZEU_-10" value="Поиск по ID" style="ellipse;whiteSpace=wrap;html=1;" parent="NOyKjD4s2Vu3y9g4RQLw-8" vertex="1">
          <mxGeometry x="210" y="180" width="110" height="50" as="geometry" />
        </mxCell>
        <mxCell id="GLcFqP7G3xesXfnYZEU_-11" value="&quot;inc&quot;" style="endArrow=open;endSize=12;dashed=1;html=1;rounded=0;exitX=1;exitY=0.5;exitDx=0;exitDy=0;entryX=0;entryY=0.5;entryDx=0;entryDy=0;" parent="NOyKjD4s2Vu3y9g4RQLw-8" source="NOyKjD4s2Vu3y9g4RQLw-14" target="GLcFqP7G3xesXfnYZEU_-10" edge="1">
          <mxGeometry width="160" relative="1" as="geometry">
            <mxPoint x="144.99999999999977" y="175" as="sourcePoint" />
            <mxPoint x="208" y="210" as="targetPoint" />
          </mxGeometry>
        </mxCell>
        <mxCell id="GLcFqP7G3xesXfnYZEU_-12" value="" style="endArrow=block;dashed=1;endFill=0;endSize=12;html=1;rounded=0;entryX=0;entryY=0.5;entryDx=0;entryDy=0;" parent="NOyKjD4s2Vu3y9g4RQLw-8" target="GLcFqP7G3xesXfnYZEU_-10" edge="1">
          <mxGeometry width="160" relative="1" as="geometry">
            <mxPoint x="150" y="280" as="sourcePoint" />
            <mxPoint x="360" y="380" as="targetPoint" />
          </mxGeometry>
        </mxCell>
        <mxCell id="LQn1UD39U449-cYzenNb-1" value="&quot;inc&quot;" style="edgeLabel;html=1;align=center;verticalAlign=middle;resizable=0;points=[];" parent="GLcFqP7G3xesXfnYZEU_-12" vertex="1" connectable="0">
          <mxGeometry x="-0.1557" y="4" relative="1" as="geometry">
            <mxPoint as="offset" />
          </mxGeometry>
        </mxCell>
        <mxCell id="GLcFqP7G3xesXfnYZEU_-7" value="Ввод данных абонента" style="ellipse;whiteSpace=wrap;html=1;" parent="NOyKjD4s2Vu3y9g4RQLw-8" vertex="1">
          <mxGeometry x="410" y="200" width="100" height="50" as="geometry" />
        </mxCell>
        <mxCell id="GLcFqP7G3xesXfnYZEU_-8" value="" style="endArrow=block;dashed=1;endFill=0;endSize=12;html=1;rounded=0;entryX=0;entryY=0.5;entryDx=0;entryDy=0;exitX=1;exitY=0.5;exitDx=0;exitDy=0;" parent="NOyKjD4s2Vu3y9g4RQLw-8" source="NOyKjD4s2Vu3y9g4RQLw-15" target="GLcFqP7G3xesXfnYZEU_-7" edge="1">
          <mxGeometry width="160" relative="1" as="geometry">
            <mxPoint x="170" y="300" as="sourcePoint" />
            <mxPoint x="330" y="300" as="targetPoint" />
          </mxGeometry>
        </mxCell>
        <mxCell id="LQn1UD39U449-cYzenNb-2" value="&quot;inc&quot;" style="edgeLabel;html=1;align=center;verticalAlign=middle;resizable=0;points=[];" parent="GLcFqP7G3xesXfnYZEU_-8" vertex="1" connectable="0">
          <mxGeometry x="-0.1609" relative="1" as="geometry">
            <mxPoint x="-1" as="offset" />
          </mxGeometry>
        </mxCell>
        <mxCell id="GLcFqP7G3xesXfnYZEU_-9" value="&quot;ext&quot;" style="html=1;verticalAlign=bottom;endArrow=open;dashed=1;endSize=8;curved=0;rounded=0;entryX=1;entryY=0.5;entryDx=0;entryDy=0;exitX=0;exitY=0.5;exitDx=0;exitDy=0;" parent="NOyKjD4s2Vu3y9g4RQLw-8" source="GLcFqP7G3xesXfnYZEU_-7" target="NOyKjD4s2Vu3y9g4RQLw-13" edge="1">
          <mxGeometry relative="1" as="geometry">
            <mxPoint x="190" y="130" as="sourcePoint" />
            <mxPoint x="200" y="320" as="targetPoint" />
          </mxGeometry>
        </mxCell>
        <mxCell id="xeJY9B51bcn7fPzytqf1-1" value="Для абонента: ФИО, ID" style="shape=note;whiteSpace=wrap;html=1;backgroundOutline=1;darkOpacity=0.05;" parent="NOyKjD4s2Vu3y9g4RQLw-8" vertex="1">
          <mxGeometry x="570" y="175" width="80" height="100" as="geometry" />
        </mxCell>
        <mxCell id="pDwavm95bBrS4AV4syEP-3" value="Ввод данных платежа" style="ellipse;whiteSpace=wrap;html=1;" parent="NOyKjD4s2Vu3y9g4RQLw-8" vertex="1">
          <mxGeometry x="407.5" y="425" width="100" height="50" as="geometry" />
        </mxCell>
        <mxCell id="pDwavm95bBrS4AV4syEP-6" value="Добавление записи оплаты" style="ellipse;whiteSpace=wrap;html=1;" parent="NOyKjD4s2Vu3y9g4RQLw-8" vertex="1">
          <mxGeometry x="52.5" y="425" width="100" height="50" as="geometry" />
        </mxCell>
        <mxCell id="pDwavm95bBrS4AV4syEP-9" value="" style="endArrow=block;dashed=1;endFill=0;endSize=12;html=1;rounded=0;entryX=0;entryY=0.5;entryDx=0;entryDy=0;exitX=1;exitY=0.5;exitDx=0;exitDy=0;" parent="NOyKjD4s2Vu3y9g4RQLw-8" source="pDwavm95bBrS4AV4syEP-6" target="pDwavm95bBrS4AV4syEP-3" edge="1">
          <mxGeometry width="160" relative="1" as="geometry">
            <mxPoint x="297.4999999999998" y="405" as="sourcePoint" />
            <mxPoint x="397.5" y="345" as="targetPoint" />
          </mxGeometry>
        </mxCell>
        <mxCell id="pDwavm95bBrS4AV4syEP-10" value="&quot;inc&quot;" style="edgeLabel;html=1;align=center;verticalAlign=middle;resizable=0;points=[];" parent="pDwavm95bBrS4AV4syEP-9" vertex="1" connectable="0">
          <mxGeometry x="-0.1557" y="4" relative="1" as="geometry">
            <mxPoint as="offset" />
          </mxGeometry>
        </mxCell>
        <mxCell id="pDwavm95bBrS4AV4syEP-14" value="Для платежа: сумма платежа, дата платежа, тип платежа" style="shape=note;whiteSpace=wrap;html=1;backgroundOutline=1;darkOpacity=0.05;" parent="NOyKjD4s2Vu3y9g4RQLw-8" vertex="1">
          <mxGeometry x="557.5" y="400" width="80" height="100" as="geometry" />
        </mxCell>
        <mxCell id="pDwavm95bBrS4AV4syEP-16" value="" style="endArrow=none;html=1;rounded=0;entryX=1;entryY=0.5;entryDx=0;entryDy=0;exitX=0;exitY=0.5;exitDx=0;exitDy=0;exitPerimeter=0;dashed=1;" parent="NOyKjD4s2Vu3y9g4RQLw-8" source="xeJY9B51bcn7fPzytqf1-1" target="GLcFqP7G3xesXfnYZEU_-7" edge="1">
          <mxGeometry width="50" height="50" relative="1" as="geometry">
            <mxPoint x="210" y="460" as="sourcePoint" />
            <mxPoint x="260" y="410" as="targetPoint" />
          </mxGeometry>
        </mxCell>
        <mxCell id="NOyKjD4s2Vu3y9g4RQLw-21" value="" style="endArrow=none;html=1;rounded=0;exitX=0;exitY=0.5;exitDx=0;exitDy=0;" parent="1" source="NOyKjD4s2Vu3y9g4RQLw-15" edge="1">
          <mxGeometry width="50" height="50" relative="1" as="geometry">
            <mxPoint x="225" y="150" as="sourcePoint" />
            <mxPoint x="80" y="490" as="targetPoint" />
          </mxGeometry>
        </mxCell>
        <mxCell id="NOyKjD4s2Vu3y9g4RQLw-23" value="" style="endArrow=none;html=1;rounded=0;entryX=0;entryY=0.5;entryDx=0;entryDy=0;" parent="1" target="NOyKjD4s2Vu3y9g4RQLw-14" edge="1">
          <mxGeometry width="50" height="50" relative="1" as="geometry">
            <mxPoint x="90" y="500" as="sourcePoint" />
            <mxPoint x="160" y="520" as="targetPoint" />
          </mxGeometry>
        </mxCell>
        <mxCell id="NOyKjD4s2Vu3y9g4RQLw-24" value="" style="endArrow=none;html=1;rounded=0;entryX=0;entryY=0.5;entryDx=0;entryDy=0;" parent="1" target="NOyKjD4s2Vu3y9g4RQLw-13" edge="1">
          <mxGeometry width="50" height="50" relative="1" as="geometry">
            <mxPoint x="100" y="510" as="sourcePoint" />
            <mxPoint x="180" y="510" as="targetPoint" />
          </mxGeometry>
        </mxCell>
        <mxCell id="NOyKjD4s2Vu3y9g4RQLw-25" value="" style="endArrow=none;html=1;rounded=0;entryX=0;entryY=0.5;entryDx=0;entryDy=0;" parent="1" target="NOyKjD4s2Vu3y9g4RQLw-12" edge="1">
          <mxGeometry width="50" height="50" relative="1" as="geometry">
            <mxPoint x="110" y="520" as="sourcePoint" />
            <mxPoint x="160" y="520" as="targetPoint" />
          </mxGeometry>
        </mxCell>
        <mxCell id="NOyKjD4s2Vu3y9g4RQLw-26" value="" style="endArrow=none;html=1;rounded=0;entryX=0;entryY=0.5;entryDx=0;entryDy=0;" parent="1" target="pDwavm95bBrS4AV4syEP-6" edge="1">
          <mxGeometry width="50" height="50" relative="1" as="geometry">
            <mxPoint x="110" y="530" as="sourcePoint" />
            <mxPoint x="334.9999999999998" y="550" as="targetPoint" />
          </mxGeometry>
        </mxCell>
        <mxCell id="NOyKjD4s2Vu3y9g4RQLw-27" value="" style="endArrow=none;html=1;rounded=0;entryX=0;entryY=0.5;entryDx=0;entryDy=0;" parent="1" target="NOyKjD4s2Vu3y9g4RQLw-10" edge="1">
          <mxGeometry width="50" height="50" relative="1" as="geometry">
            <mxPoint x="110" y="550" as="sourcePoint" />
            <mxPoint x="160" y="560" as="targetPoint" />
          </mxGeometry>
        </mxCell>
        <mxCell id="pDwavm95bBrS4AV4syEP-15" value="" style="endArrow=none;html=1;rounded=0;entryX=0;entryY=0.5;entryDx=0;entryDy=0;entryPerimeter=0;dashed=1;" parent="1" target="pDwavm95bBrS4AV4syEP-14" edge="1">
          <mxGeometry width="50" height="50" relative="1" as="geometry">
            <mxPoint x="787.5" y="550" as="sourcePoint" />
            <mxPoint x="537.5" y="485" as="targetPoint" />
          </mxGeometry>
        </mxCell>
        <mxCell id="YVlzcLnPFSvjnwCm2Mt0-1" value="ПО &quot;Система учета денежных средств&quot;" style="text;html=1;align=center;verticalAlign=middle;resizable=0;points=[];autosize=1;strokeColor=none;fillColor=none;" parent="1" vertex="1">
          <mxGeometry x="480" y="60" width="240" height="30" as="geometry" />
        </mxCell>
      </root>
    </mxGraphModel>
  </diagram>
  <diagram id="MA4F73tG4VHjVTLNXlSR" name="Страница — 2">
    <mxGraphModel dx="2607" dy="1418" grid="1" gridSize="10" guides="1" tooltips="1" connect="1" arrows="1" fold="1" page="1" pageScale="1" pageWidth="827" pageHeight="1169" math="0" shadow="0">
      <root>
        <mxCell id="0" />
        <mxCell id="1" parent="0" />
        <mxCell id="EGIoXad6iEcWKBCSuE6C-7" value="&lt;p style=&quot;margin:0px;margin-top:4px;text-align:center;&quot;&gt;&lt;b&gt;Payments&lt;/b&gt;&lt;/p&gt;&lt;hr size=&quot;1&quot;&gt;&lt;p style=&quot;margin:0px;margin-left:4px;&quot;&gt;#_date: DateTime&lt;/p&gt;&lt;p style=&quot;margin:0px;margin-left:4px;&quot;&gt;#_amount: int&lt;/p&gt;&lt;hr size=&quot;1&quot;&gt;&lt;p style=&quot;margin:0px;margin-left:4px;&quot;&gt;+Payment(): void;&lt;br&gt;&lt;/p&gt;&lt;p style=&quot;margin:0px;margin-left:4px;&quot;&gt;+Amount(): int;&lt;br&gt;&lt;/p&gt;&lt;p style=&quot;margin:0px;margin-left:4px;&quot;&gt;+Date(): DateTime;&lt;br&gt;&lt;/p&gt;&lt;p style=&quot;margin:0px;margin-left:4px;&quot;&gt;+EditPayment(): virtual void;&lt;br&gt;&lt;/p&gt;" style="verticalAlign=top;align=left;overflow=fill;fontSize=12;fontFamily=Helvetica;html=1;whiteSpace=wrap;" parent="1" vertex="1">
          <mxGeometry x="440" y="40" width="200" height="200" as="geometry" />
        </mxCell>
        <mxCell id="EGIoXad6iEcWKBCSuE6C-8" value="&lt;p style=&quot;margin:0px;margin-top:4px;text-align:center;&quot;&gt;&lt;b&gt;Subscribers&lt;/b&gt;&lt;/p&gt;&lt;hr size=&quot;1&quot;&gt;&lt;p style=&quot;margin:0px;margin-left:4px;&quot;&gt;&lt;span style=&quot;background-color: initial;&quot;&gt;- _name: string&lt;/span&gt;&lt;br&gt;&lt;/p&gt;&lt;p style=&quot;margin:0px;margin-left:4px;&quot;&gt;- _payments: list&lt;/p&gt;&lt;hr size=&quot;1&quot;&gt;&lt;p style=&quot;border-color: var(--border-color); margin: 0px 0px 0px 4px;&quot;&gt;+Name(): string;&lt;/p&gt;&lt;p style=&quot;border-color: var(--border-color); margin: 0px 0px 0px 4px;&quot;&gt;+Payments(): list;&lt;/p&gt;&lt;p style=&quot;border-color: var(--border-color); margin: 0px 0px 0px 4px;&quot;&gt;+Subscriber(): void;&lt;/p&gt;&lt;p style=&quot;margin:0px;margin-left:4px;&quot;&gt;+EditSubscriber() : void;&lt;br&gt;&lt;/p&gt;&lt;p style=&quot;margin:0px;margin-left:4px;&quot;&gt;+AddPayment&lt;span style=&quot;background-color: initial;&quot;&gt;() : void;&lt;/span&gt;&lt;/p&gt;&lt;p style=&quot;margin:0px;margin-left:4px;&quot;&gt;&lt;span style=&quot;background-color: initial;&quot;&gt;+EditPayment(string className) : void;&lt;/span&gt;&lt;/p&gt;&lt;p style=&quot;margin:0px;margin-left:4px;&quot;&gt;+DeletePayment(string className) : void;&lt;span style=&quot;background-color: initial;&quot;&gt;&lt;br&gt;&lt;/span&gt;&lt;/p&gt;" style="verticalAlign=top;align=left;overflow=fill;fontSize=12;fontFamily=Helvetica;html=1;whiteSpace=wrap;" parent="1" vertex="1">
          <mxGeometry x="40" y="40" width="200" height="200" as="geometry" />
        </mxCell>
        <mxCell id="EGIoXad6iEcWKBCSuE6C-11" value="&lt;p style=&quot;margin:0px;margin-top:4px;text-align:center;&quot;&gt;&lt;b&gt;Card&lt;/b&gt;&lt;/p&gt;&lt;hr size=&quot;1&quot;&gt;&lt;p style=&quot;margin:0px;margin-left:4px;&quot;&gt;- _cardNumber:&amp;nbsp;long&lt;/p&gt;&lt;p style=&quot;margin:0px;margin-left:4px;&quot;&gt;- _cvv: short&lt;/p&gt;&lt;hr size=&quot;1&quot;&gt;&lt;p style=&quot;border-color: var(--border-color); margin: 0px 0px 0px 4px;&quot;&gt;+ CardNumber(): long;&lt;/p&gt;&lt;p style=&quot;border-color: var(--border-color); margin: 0px 0px 0px 4px;&quot;&gt;+ Cvv(): short;&lt;br style=&quot;border-color: var(--border-color);&quot;&gt;&lt;/p&gt;&lt;p style=&quot;border-color: var(--border-color); margin: 0px 0px 0px 4px;&quot;&gt;+ Name(): string;&lt;br style=&quot;border-color: var(--border-color);&quot;&gt;&lt;/p&gt;&lt;p style=&quot;border-color: var(--border-color); margin: 0px 0px 0px 4px;&quot;&gt;+ EditPayment(): void override;&lt;/p&gt;" style="verticalAlign=top;align=left;overflow=fill;fontSize=12;fontFamily=Helvetica;html=1;whiteSpace=wrap;" parent="1" vertex="1">
          <mxGeometry x="560" y="320" width="200" height="200" as="geometry" />
        </mxCell>
        <mxCell id="EGIoXad6iEcWKBCSuE6C-12" value="&lt;p style=&quot;margin:0px;margin-top:4px;text-align:center;&quot;&gt;&lt;b&gt;Cash&lt;/b&gt;&lt;/p&gt;&lt;hr size=&quot;1&quot;&gt;&lt;p style=&quot;margin:0px;margin-left:4px;&quot;&gt;- _currency: string&lt;/p&gt;&lt;p style=&quot;border-color: var(--border-color); margin: 0px 0px 0px 4px;&quot;&gt;- _name: string&lt;/p&gt;&lt;hr size=&quot;1&quot;&gt;&lt;p style=&quot;margin:0px;margin-left:4px;&quot;&gt;+ Cash(): void;&lt;/p&gt;&lt;p style=&quot;margin:0px;margin-left:4px;&quot;&gt;+ Currency(): string;&lt;br&gt;&lt;/p&gt;&lt;p style=&quot;margin:0px;margin-left:4px;&quot;&gt;+ Name(): string;&lt;br&gt;&lt;/p&gt;&lt;p style=&quot;margin:0px;margin-left:4px;&quot;&gt;+ EditPayment(): void override;&lt;br&gt;&lt;/p&gt;" style="verticalAlign=top;align=left;overflow=fill;fontSize=12;fontFamily=Helvetica;html=1;whiteSpace=wrap;" parent="1" vertex="1">
          <mxGeometry x="320" y="320" width="200" height="200" as="geometry" />
        </mxCell>
        <mxCell id="EGIoXad6iEcWKBCSuE6C-13" value="" style="endArrow=block;endSize=16;endFill=0;html=1;rounded=0;entryX=0.5;entryY=1;entryDx=0;entryDy=0;exitX=0.5;exitY=0;exitDx=0;exitDy=0;" parent="1" source="EGIoXad6iEcWKBCSuE6C-11" target="EGIoXad6iEcWKBCSuE6C-7" edge="1">
          <mxGeometry width="160" relative="1" as="geometry">
            <mxPoint x="650" y="290" as="sourcePoint" />
            <mxPoint x="810" y="290" as="targetPoint" />
          </mxGeometry>
        </mxCell>
        <mxCell id="EGIoXad6iEcWKBCSuE6C-14" value="" style="endArrow=block;endSize=16;endFill=0;html=1;rounded=0;entryX=0.47;entryY=1.006;entryDx=0;entryDy=0;entryPerimeter=0;exitX=0.5;exitY=0;exitDx=0;exitDy=0;" parent="1" source="EGIoXad6iEcWKBCSuE6C-12" target="EGIoXad6iEcWKBCSuE6C-7" edge="1">
          <mxGeometry width="160" relative="1" as="geometry">
            <mxPoint x="240" y="270" as="sourcePoint" />
            <mxPoint x="400" y="270" as="targetPoint" />
          </mxGeometry>
        </mxCell>
        <mxCell id="Opgn8ut-dxji5txbyb_8-1" value="" style="endArrow=open;endSize=12;dashed=1;html=1;rounded=0;entryX=1.018;entryY=0.63;entryDx=0;entryDy=0;entryPerimeter=0;exitX=-0.002;exitY=0.634;exitDx=0;exitDy=0;exitPerimeter=0;" parent="1" source="EGIoXad6iEcWKBCSuE6C-7" target="EGIoXad6iEcWKBCSuE6C-8" edge="1">
          <mxGeometry width="160" relative="1" as="geometry">
            <mxPoint x="330" y="300" as="sourcePoint" />
            <mxPoint x="490" y="300" as="targetPoint" />
          </mxGeometry>
        </mxCell>
      </root>
    </mxGraphModel>
  </diagram>
</mxfile>
